HIERARCHY
ROOT Hips
{
	OFFSET 0.000000 0.000000 0.000000
	CHANNELS 6 Xposition Yposition Zposition Zrotation Yrotation Xrotation 
	JOINT LHipJoint
	{
		OFFSET 0.000000 0.000000 0.000000
		CHANNELS 3 Zrotation Yrotation Xrotation
		JOINT LeftUpLeg
		{
			OFFSET 1.363060 -1.794630 0.839290
			CHANNELS 3 Zrotation Yrotation Xrotation
			JOINT LeftLeg
			{
				OFFSET 2.448110 -6.726130 0.000000
				CHANNELS 3 Zrotation Yrotation Xrotation
				JOINT LeftFoot
				{
					OFFSET 2.562200 -7.039590 0.000000
					CHANNELS 3 Zrotation Yrotation Xrotation
					JOINT LeftToeBase
					{
						OFFSET 0.157640 -0.433110 2.322550
						CHANNELS 3 Zrotation Yrotation Xrotation
						End Site
						{
							OFFSET 0.000000 0.000000 0.000000
						}
					}
				}
			}
		}
	}
	JOINT RHipJoint
	{
		OFFSET 0.000000 0.000000 0.000000
		CHANNELS 3 Zrotation Yrotation Xrotation
		JOINT RightUpLeg
		{
			OFFSET -1.305520 -1.794630 0.839290
			CHANNELS 3 Zrotation Yrotation Xrotation
			JOINT RightLeg
			{
				OFFSET -2.542530 -6.985550 0.000000
				CHANNELS 3 Zrotation Yrotation Xrotation
				JOINT RightFoot
				{
					OFFSET -2.568260 -7.056230 0.000000
					CHANNELS 3 Zrotation Yrotation Xrotation
					JOINT RightToeBase
					{
						OFFSET -0.164730 -0.452590 2.363150
						CHANNELS 3 Zrotation Yrotation Xrotation
						End Site
						{
							OFFSET 0.000000 0.000000 0.000000
						}
					}
				}
			}
		}
	}
	JOINT LowerBack
	{
		OFFSET 0.000000 0.000000 0.000000
		CHANNELS 3 Zrotation Yrotation Xrotation
		JOINT Spine
		{
			OFFSET 0.028270 2.035590 -0.193380
			CHANNELS 3 Zrotation Yrotation Xrotation
			JOINT Spine1
			{
				OFFSET 0.056720 2.048850 -0.042750
				CHANNELS 3 Zrotation Yrotation Xrotation
				JOINT Neck
				{
					OFFSET 0.000000 0.000000 0.000000
					CHANNELS 3 Zrotation Yrotation Xrotation
					JOINT Neck1
					{
						OFFSET -0.054170 1.746240 0.172020
						CHANNELS 3 Zrotation Yrotation Xrotation
						JOINT Head
						{
							OFFSET 0.104070 1.761360 -0.123970
							CHANNELS 3 Zrotation Yrotation Xrotation
							End Site
							{
								OFFSET 0.000000 0.000000 0.000000
							}
						}
					}
				}
				JOINT LeftShoulder
				{
					OFFSET 0.000000 0.000000 0.000000
					CHANNELS 3 Zrotation Yrotation Xrotation
					JOINT LeftArm
					{
						OFFSET 3.362410 1.200890 -0.311210
						CHANNELS 3 Zrotation Yrotation Xrotation
						JOINT LeftForeArm
						{
							OFFSET 4.983000 -0.000000 -0.000000
							CHANNELS 3 Zrotation Yrotation Xrotation
							JOINT LeftHand
							{
								OFFSET 3.483560 -0.000000 -0.000000
								CHANNELS 3 Zrotation Yrotation Xrotation
								JOINT LeftFingerBase
								{
									OFFSET 0.000000 0.000000 0.000000
									CHANNELS 3 Zrotation Yrotation Xrotation
									JOINT LeftHandIndex1
									{
										OFFSET 0.715260 -0.000000 -0.000000
										CHANNELS 3 Zrotation Yrotation Xrotation
										End Site
										{
											OFFSET 0.000000 0.000000 0.000000
										}
									}
								}
								JOINT LThumb
								{
									OFFSET 0.000000 0.000000 0.000000
									CHANNELS 3 Zrotation Yrotation Xrotation
									End Site
									{
										OFFSET 0.000000 0.000000 0.000000
									}
								}
							}
						}
					}
				}
				JOINT RightShoulder
				{
					OFFSET 0.000000 0.000000 0.000000
					CHANNELS 3 Zrotation Yrotation Xrotation
					JOINT RightArm
					{
						OFFSET -3.136600 1.374050 -0.404650
						CHANNELS 3 Zrotation Yrotation Xrotation
						JOINT RightForeArm
						{
							OFFSET -5.241900 -0.000000 -0.000000
							CHANNELS 3 Zrotation Yrotation Xrotation
							JOINT RightHand
							{
								OFFSET -3.444170 -0.000000 -0.000000
								CHANNELS 3 Zrotation Yrotation Xrotation
								JOINT RightFingerBase
								{
									OFFSET 0.000000 0.000000 0.000000
									CHANNELS 3 Zrotation Yrotation Xrotation
									JOINT RightHandIndex1
									{
										OFFSET -0.622530 -0.000000 -0.000000
										CHANNELS 3 Zrotation Yrotation Xrotation
										End Site
										{
											OFFSET 0.000000 0.000000 0.000000
										}
									}
								}
								JOINT RThumb
								{
									OFFSET 0.000000 0.000000 0.000000
									CHANNELS 3 Zrotation Yrotation Xrotation
									End Site
									{
										OFFSET 0.000000 0.000000 0.000000
									}
								}
							}
						}
					}
				}
			}
		}
	}
}
MOTION
Frames: 10
Frame Time: 0.008333
0.520316 17.305847 -1.621502 128.206636 -75.431918 -118.200963 -6.187672 -4.452273 1.428815 -2.770319 -10.235234 -76.086737 -3.295892 -1.315174 -5.380087 -0.599011 -2.796219 20.202226 -0.708300 0.000000 -58.234900 8.928480 2.808567 -5.337134 2.033077 3.523667 -11.874353 1.101345 -0.901800 16.149999 -1.220553 -4.418542 -7.063176 -0.317100 -0.000001 -46.183000 -0.852087 0.300859 8.622168 -0.963725 0.548494 -1.890219 -5.984762 0.437838 -1.762307 10.887984 1.436860 -1.519262 -4.599363 -0.374307 1.339140 0.000000 0.000000 0.000000 -4.536634 -2.423310 2.208621 -72.542051 0.922426 11.289476 -2.296825 -34.336452 -0.000297 3.753267 -3.837356 -0.128469 -0.037934 0.056530 -0.000000 0.000000 0.000000 0.000000 0.000000 0.000000 0.000000 21.301001 2.998814 2.200015 64.466317 15.028661 2.126153 3.077909 19.748226 0.007814 -1.800154 10.223037 -0.168407 0.062679 -0.138550 0.000000 0.000000 0.000000 0.000000 0.000000 0.000000 0.000000 
0.519832 17.306328 -1.608355 129.437185 -75.086017 -119.297768 -6.072142 -4.441005 1.197492 -5.083236 -9.422740 -75.850567 -3.778543 -1.597487 -7.481021 -1.046581 -6.293183 19.305602 -2.242900 -0.000000 -60.364200 8.936231 2.823366 -5.242905 1.888469 3.591921 -12.237594 1.104487 -0.883686 16.285458 -1.153196 -4.062287 -7.034118 -0.299400 -0.000000 -46.337300 -0.801997 0.362145 8.759338 -0.951804 0.609157 -1.862620 -5.948781 0.498354 -1.751001 10.873330 1.556651 -1.437989 -4.587650 -0.373622 1.357132 0.000000 0.000000 0.000000 -4.599979 -2.364691 2.194390 -72.474976 0.862246 11.332474 -2.279809 -34.621579 -0.000381 3.817941 -3.875892 -0.132065 -0.038456 0.057898 -0.000000 0.000000 0.000000 0.000000 0.000000 0.000000 0.000000 21.252431 3.111301 2.191131 64.488845 15.243366 2.383077 3.076573 19.780172 0.007835 -1.743867 10.216277 -0.163107 0.062167 -0.139002 0.000000 0.000000 0.000000 0.000000 0.000000 0.000000 0.000000 
0.518552 17.306160 -1.594136 130.435067 -74.774278 -120.115569 -5.955775 -4.332531 1.033632 -7.238651 -8.874889 -76.695312 -4.231752 -1.695987 -7.333136 -1.310385 -9.488947 17.468639 -3.530600 0.000000 -62.300900 8.951498 2.842019 -5.157591 1.723205 3.611921 -12.674915 1.109881 -0.868194 16.466978 -1.084930 -3.690763 -7.034398 -0.278200 0.000000 -46.494300 -0.739646 0.396797 8.848546 -0.933114 0.644491 -1.848880 -5.914015 0.533148 -1.737232 10.859391 1.677783 -1.354403 -4.578075 -0.373106 1.376389 0.000000 0.000000 0.000000 -4.655034 -2.327847 2.182975 -72.415629 0.830603 11.385741 -2.264731 -34.890162 -0.000454 3.882961 -3.921363 -0.135858 -0.039035 0.059230 -0.000000 0.000000 0.000000 0.000000 0.000000 0.000000 0.000000 21.215525 3.203495 2.179925 64.497567 15.476691 2.627767 3.076609 19.776442 0.007880 -1.678672 10.202870 -0.156908 0.061666 -0.139201 0.000000 0.000000 0.000000 0.000000 0.000000 0.000000 0.000000 
0.516677 17.305287 -1.578853 131.259199 -74.520979 -120.714117 -5.863713 -4.171329 0.929194 -9.078755 -8.543924 -77.957793 -4.634593 -1.679354 -6.123860 -1.366195 -12.078616 15.397446 -4.491400 -0.000000 -63.944900 8.960545 2.858574 -5.076082 1.579746 3.626412 -13.166628 1.116948 -0.853820 16.672434 -1.025821 -3.361385 -7.055154 -0.258100 0.000000 -46.638300 -0.641082 0.407235 8.888042 -0.905550 0.655063 -1.845390 -5.882202 0.542922 -1.720704 10.848252 1.793858 -1.268728 -4.571125 -0.372827 1.397090 0.000000 0.000000 0.000000 -4.699545 -2.323264 2.173537 -72.365675 0.827221 11.450023 -2.250481 -35.135138 -0.000523 3.949869 -3.978355 -0.140254 -0.039624 0.060544 -0.000000 0.000000 0.000000 0.000000 0.000000 0.000000 0.000000 21.193334 3.270713 2.167362 64.488081 15.731445 2.863085 3.078841 19.740887 0.007950 -1.607620 10.184985 -0.150211 0.061223 -0.139177 0.000000 0.000000 0.000000 0.000000 0.000000 0.000000 0.000000 
0.514400 17.303796 -1.562790 131.962166 -74.328068 -121.161839 -5.811631 -4.030525 0.852646 -10.582183 -8.315956 -78.775515 -4.942450 -1.679572 -5.424241 -1.374251 -13.907503 14.028038 -5.121800 0.000000 -65.251800 8.951719 2.867341 -4.990952 1.483218 3.665397 -13.686632 1.124044 -0.839240 16.888031 -0.982351 -3.112298 -7.090313 -0.242100 0.000000 -46.746200 -0.503232 0.399127 8.889933 -0.871875 0.644577 -1.845376 -5.855293 0.531579 -1.701130 10.845365 1.904108 -1.180460 -4.567676 -0.372858 1.419364 0.000000 0.000000 0.000000 -4.726420 -2.351040 2.165653 -72.324194 0.839338 11.535291 -2.237093 -35.340781 -0.000584 4.020743 -4.050855 -0.145448 -0.040248 0.061849 -0.000000 0.000000 0.000000 0.000000 0.000000 0.000000 0.000000 21.194157 3.316375 2.153940 64.458806 16.004541 3.076647 3.082988 19.681103 0.008039 -1.529566 10.163774 -0.142811 0.060783 -0.138979 0.000000 0.000000 0.000000 0.000000 0.000000 0.000000 0.000000 
0.511975 17.301856 -1.546154 132.591861 -74.205589 -121.511379 -5.805833 -3.917583 0.801152 -11.742018 -8.159900 -79.144905 -5.144624 -1.698648 -5.231516 -1.407371 -14.929912 13.396405 -5.445900 -0.000001 -66.287100 8.921538 2.867612 -4.904708 1.450259 3.750621 -14.211638 1.130809 -0.823525 17.096426 -0.958333 -2.968506 -7.130910 -0.232200 0.000000 -46.814800 -0.320475 0.376388 8.859881 -0.831422 0.616898 -1.848210 -5.835357 0.502915 -1.679593 10.856740 2.005641 -1.089572 -4.568269 -0.373223 1.443091 0.000000 0.000000 0.000000 -4.730680 -2.416521 2.159151 -72.290285 0.860224 11.646021 -2.224605 -35.497471 -0.000636 4.096194 -4.139989 -0.151443 -0.040895 0.063120 -0.000000 0.000000 0.000000 0.000000 0.000000 0.000000 0.000000 21.225232 3.338756 2.140978 64.407035 16.293837 3.260659 3.088955 19.602445 0.008141 -1.446030 10.141811 -0.134912 0.060327 -0.138633 0.000000 0.000000 0.000000 0.000000 0.000000 0.000000 0.000000 
0.509676 17.299630 -1.529360 133.169819 -74.153119 -121.796972 -5.846989 -3.836018 0.763031 -12.618368 -8.037856 -79.065702 -5.245102 -1.737422 -5.536344 -1.501885 -15.189602 13.516612 -5.510600 0.000000 -67.134900 8.870423 2.858690 -4.818388 1.485883 3.889623 -14.717798 1.136655 -0.806261 17.284498 -0.954586 -2.937639 -7.168745 -0.229100 -0.000000 -46.850600 -0.094800 0.343062 8.809628 -0.784909 0.576393 -1.852392 -5.823662 0.461286 -1.658120 10.887307 2.088308 -0.995857 -4.573556 -0.373955 1.468176 0.000000 0.000000 0.000000 -4.708531 -2.536713 2.153302 -72.262897 0.897895 11.771622 -2.212283 -35.608065 -0.000678 4.173221 -4.243041 -0.158138 -0.041466 0.064275 -0.000000 0.000000 0.000000 0.000000 0.000000 0.000000 0.000000 21.294837 3.327675 2.130812 64.328710 16.606595 3.426565 3.096904 19.501939 0.008250 -1.366544 10.124662 -0.127513 0.059921 -0.138173 0.000000 0.000000 0.000000 0.000000 0.000000 0.000000 0.000000 
0.507640 17.297246 -1.512581 133.714450 -74.165356 -122.048522 -5.932021 -3.785983 0.730905 -13.248656 -7.927624 -78.562497 -5.250085 -1.793406 -6.290278 -1.645013 -14.723815 14.335300 -5.340001 -0.000000 -67.687500 8.801500 2.841520 -4.734383 1.585163 4.075668 -15.190872 1.141678 -0.787836 17.448026 -0.968907 -3.008798 -7.199137 -0.232401 -0.000000 -46.860400 0.167751 0.302577 8.749211 -0.733485 0.526869 -1.856387 -5.820156 0.410526 -1.636910 10.939145 2.156221 -0.899324 -4.582990 -0.374994 1.494386 0.000000 0.000000 0.000000 -4.656760 -2.701436 2.148256 -72.241755 0.934228 11.923771 -2.201219 -35.657751 -0.000709 4.250563 -4.356911 -0.165334 -0.042023 0.065312 -0.000000 0.000000 0.000000 0.000000 0.000000 0.000000 0.000000 21.401507 3.290528 2.122854 64.228205 16.931812 3.550551 3.105943 19.387432 0.008357 -1.288091 10.113292 -0.120314 0.059483 -0.137635 0.000000 0.000000 0.000000 0.000000 0.000000 0.000000 0.000000 
0.505695 17.294908 -1.496014 134.238314 -74.231192 -122.284127 -6.055031 -3.764629 0.705152 -13.625906 -7.827873 -77.691615 -5.164877 -1.859730 -7.395013 -1.777924 -13.542311 15.733158 -4.930300 -0.000000 -67.803500 8.720148 2.818554 -4.656449 1.735839 4.293761 -15.622561 1.146213 -0.769107 17.586374 -0.997134 -3.159118 -7.219054 -0.241000 -0.000000 -46.855001 0.457555 0.258558 8.684385 -0.679026 0.472344 -1.859547 -5.824448 0.354686 -1.616408 11.012545 2.202100 -0.800589 -4.596192 -0.376314 1.521413 0.000000 0.000000 0.000000 -4.574529 -2.916464 2.143059 -72.226726 0.973091 12.093214 -2.191241 -35.650052 -0.000724 4.322878 -4.474076 -0.172631 -0.042507 0.066153 -0.000000 0.000000 0.000000 0.000000 0.000000 0.000000 0.000000 21.544689 3.221311 2.117962 64.107059 17.273012 3.639728 3.116051 19.254745 0.008461 -1.219296 10.112964 -0.114115 0.059087 -0.137055 0.000000 0.000000 0.000000 0.000000 0.000000 0.000000 0.000000 
0.504025 17.292657 -1.479902 134.730390 -74.346735 -122.490443 -6.205566 -3.719650 0.708023 -13.722938 -7.811239 -77.049343 -5.029114 -1.829191 -7.738456 -1.745473 -11.705063 16.982758 -4.268900 0.000000 -67.316400 8.638131 2.795839 -4.594129 1.918678 4.519962 -16.016105 1.151615 -0.752058 17.703506 -1.033119 -3.354094 -7.229332 -0.253000 0.000000 -46.847600 0.766635 0.209916 8.613628 -0.620531 0.413524 -1.864766 -5.834612 0.294392 -1.594498 11.106203 2.242041 -0.702042 -4.611271 -0.377721 1.548275 0.000000 0.000000 0.000000 -4.459880 -3.142644 2.139100 -72.218403 0.971167 12.308120 -2.185583 -35.557997 -0.000713 4.387938 -4.585760 -0.179628 -0.043147 0.066876 -0.000000 0.000000 0.000000 0.000000 0.000000 0.000000 0.000000 21.712841 3.140287 2.112528 63.977292 17.606289 3.646191 3.125327 19.117669 0.008549 -1.149636 10.122261 -0.107916 0.058555 -0.136450 0.000000 0.000000 0.000000 0.000000 0.000000 0.000000 0.000000 
